<?xml version="1.0" standalone="no"?><!DOCTYPE svg PUBLIC "-//W3C//DTD SVG 1.1//EN" "http://www.w3.org/Graphics/SVG/1.1/DTD/svg11.dtd"><svg t="1526462064461" class="icon" style="" viewBox="0 0 1024 1024" version="1.1" xmlns="http://www.w3.org/2000/svg" p-id="1223" xmlns:xlink="http://www.w3.org/1999/xlink" width="200" height="200"><defs><style type="text/css">@font-face { font-family: uc-nexus-iconfont; src: url("chrome-extension://pogijhnlcfmcppgimcaccdkmbedjkmhi/res/font_9qmmi8b8jsxxbt9.woff") format("woff"), url("chrome-extension://pogijhnlcfmcppgimcaccdkmbedjkmhi/res/font_9qmmi8b8jsxxbt9.ttf") format("truetype"); }
</style></defs><path d="M871.476 185.049h-35.059l14.721 15.788-2.925 17.185h23.263c49.056 0 98.128 42.221 98.128 96.008v386.923c0 51.175-33.63 94.99-98.128 94.99H586.188v1.741c0 17.824-14.721 68.703-69.395 68.703-55.725 0-67.291-50.879-67.291-68.703v-1.741H162.111c-40.652 0-93.223-32.595-93.223-94.99V314.029c0-64.482 50.994-93.215 93.223-93.215h18.228l-2.103-25.94 9.463-9.824h-25.587c-71.226 0-128.972 57.746-128.972 128.98v386.923c0 71.234 57.746 128.98 128.972 128.98H426.01c13.356 37.473 48.809 64.481 90.783 64.481s77.428-27.009 90.775-64.481h263.907c71.234 0 128.964-57.746 128.964-128.98V314.029c0-71.234-57.729-128.98-128.963-128.98z" fill="#cdcdcd" p-id="1224"></path><path d="M678.014 120.567c-55.733 0-111.122 14.917-161.221 43.273-50.098-28.355-105.487-43.273-161.22-43.273-67.883 0-135.773 20.963-193.462 63.036v525.415c0 17.825 14.424 32.233 32.249 32.233 3.179 0 111.492-38.854 161.213-38.854 51.232 0 102.021 13.109 148.817 37.161l0.534-0.313 0.033-0.065c3.68 1.445 7.615 2.382 11.836 2.382 4.223 0 8.157-0.937 11.837-2.382l0.033 0.065 0.534 0.313c46.796-24.052 97.585-37.161 148.816-37.161 49.713 0 158.042 38.854 161.213 38.854 17.825 0 32.249-14.408 32.249-32.233V183.603c-57.696-42.073-125.579-63.036-193.461-63.036zM502.895 711.599c-41.096-14.359-88.443-35.519-147.322-35.519-44.456 0-124.75 13.964-165.837 28.322V196.566c39.297-22.113 93.642-47.249 165.837-47.249 45.663 0 108.025 23.92 147.322 46.033v516.249z m338.78-3.977c-41.088-14.358-114.597-33.283-163.661-31.542-49.77 1.774-108.559 17.184-149.654 31.542V191.374c39.297-22.113 103.992-42.057 149.654-42.057 64.482 0 124.364 28.355 163.661 50.468v507.837z" fill="#cdcdcd" p-id="1225"></path><path d="M260.247 314.029h171.381v-32.232H260.247v32.232z m0 128.98h171.381V410.76H260.247v32.249z m0 128.964h171.381v-32.249H260.247v32.249z m334.352-290.176v32.232H765.98v-32.232H594.599z m0 161.212H765.98V410.76H594.599v32.249z m0 128.964H765.98v-32.249H594.599v32.249z" fill="#cdcdcd" p-id="1226"></path></svg>