<?xml version="1.0" standalone="no"?><!DOCTYPE svg PUBLIC "-//W3C//DTD SVG 1.1//EN" "http://www.w3.org/Graphics/SVG/1.1/DTD/svg11.dtd"><svg t="1526462015408" class="icon" style="" viewBox="0 0 1024 1024" version="1.1" xmlns="http://www.w3.org/2000/svg" p-id="1045" xmlns:xlink="http://www.w3.org/1999/xlink" width="200" height="200"><defs><style type="text/css">@font-face { font-family: uc-nexus-iconfont; src: url("chrome-extension://pogijhnlcfmcppgimcaccdkmbedjkmhi/res/font_9qmmi8b8jsxxbt9.woff") format("woff"), url("chrome-extension://pogijhnlcfmcppgimcaccdkmbedjkmhi/res/font_9qmmi8b8jsxxbt9.ttf") format("truetype"); }
</style></defs><path d="M895.887 166.804c-15.842 0-28.655-12.813-28.655-28.667 0-15.854 12.813-28.667 28.655-28.667 15.854 0 28.667-12.814 28.667-28.667s-12.813-28.667-28.667-28.667H207.953c-47.471 0-85.991 38.485-85.991 86.001v773.925c0 31.662 25.639 57.334 57.323 57.334h687.946c31.685 0 57.322-25.672 57.322-57.334V195.471c0.001-15.854-12.813-28.667-28.666-28.667z m0.619 57.334v706.435H153.309V199.614c4.2 5.765 28.825 24.523 54.644 24.523h109.174v-28.825H207.953c-15.786 0-54.644-11.665-54.644-57.177 0-47.088 38.857-58.123 55.33-58.123h691.92c-12.025 7.026-53.776 11.395-53.776 58.123 0 34.703 42.179 50.601 49.723 57.177H499.68v28.825h396.826z" fill="#cdcdcd" p-id="1046"></path><path d="M293.943 52.135v458.63l114.658-114.646 114.657 114.646V52.135H293.943z m203.339 395.621l-88.681-87.916-87.983 87.916V78.798h176.665v368.958z" fill="#cdcdcd" p-id="1047"></path></svg>